<?xml version="1.0" encoding="utf-8"?>
<!-- Generator: Adobe Illustrator 17.1.0, SVG Export Plug-In . SVG Version: 6.00 Build 0)  -->
<!DOCTYPE svg PUBLIC "-//W3C//DTD SVG 1.1//EN" "http://www.w3.org/Graphics/SVG/1.1/DTD/svg11.dtd">
<svg class="bags" version="1.1" id="Layer_1" xmlns="http://www.w3.org/2000/svg" xmlns:xlink="http://www.w3.org/1999/xlink" x="0px" y="0px"
	 viewBox="0 0 430 370" enable-background="new 0 0 430 370" xml:space="preserve">

	 <defs>

        <style>
            .st0{}
            .st1{
                stroke-dasharray: 2000;
                stroke-dashoffset:2000;
                animation: dash 3s linear 1.5s forwards;
            }
            @keyframes dash{
                from{
                    stroke-dashoffset: 2000;
                }
                to{
                    stroke-dashoffset:0;
                }
            }

	    </style>
	 </defs>


<path class="st1" fill="none" stroke="#29ABE2" stroke-width="1.5" stroke-linecap="round" stroke-linejoin="round" stroke-miterlimit="10" d="
	M287.9,57.4c0-19.3-2-54.8,35-54.8c36.3,0,35,35.5,35,54.8"/>
<polygon class="st1" fill="#0071BC" stroke="#29ABE2" stroke-width="2" stroke-linecap="round" stroke-linejoin="round" stroke-miterlimit="10" points="
	418,61 226,61 248,48 396,48 "/>
<polygon class="st1" fill="#0071BC" stroke="#29ABE2" stroke-width="2" stroke-linecap="round" stroke-linejoin="round" stroke-miterlimit="10" points="
	428.9,313 215.9,313 219.5,273 225.9,61 417.9,61 423,271 "/>
<path class="st1" fill="#0071BC" stroke="#29ABE2" stroke-width="1.5" stroke-linecap="round" stroke-linejoin="round" stroke-miterlimit="10" d="
	M140.3,187.9l0.2,0c4.1,1.2,14.4-1.3,15.6-5.4l15.8-88.3c0.3-1.1-0.3-2.2-1.4-2.5l-11.2-3.1c-1.1-0.3-2.2,0.3-2.5,1.4l-21.8,88.3
	C133.7,182.5,136.1,186.8,140.3,187.9z"/>
<path class="st1" fill="#0071BC" stroke="#29ABE2" stroke-width="1.5" stroke-linecap="round" stroke-linejoin="round" stroke-miterlimit="10" d="
	M204.5,187.9l-0.2,0c-4.1,1.2-14.4-1.3-15.6-5.4L173,94.3c-0.3-1.1,0.3-2.2,1.4-2.5l11.2-3.1c1.1-0.3,2.2,0.3,2.5,1.4l21.8,88.3
	C211,182.5,208.6,186.8,204.5,187.9z"/>
<path class="st1" fill="#0071BC" stroke="#29ABE2" stroke-width="2" stroke-linecap="round" stroke-linejoin="round" stroke-miterlimit="10" d="
	M262.8,165h-189c-3.8,0-7.6,1.3-10.6,3.7L6.4,213.4c-1.5,1.2-3.6,8.6-1.8,8.6l328.5,1.5c1.9,0-0.3-8.9-1.8-10.1l-55.9-44.1
	C271.8,166.5,267.4,165,262.8,165z"/>
<polygon class="st1" fill="#0071BC" stroke="#29ABE2" stroke-width="2" stroke-linecap="round" stroke-linejoin="round" stroke-miterlimit="10" points="
	266.6,170 70.6,170 17.3,212 53.9,212 319.9,212 "/>
<polyline class="st1" fill="none" stroke="#29ABE2" stroke-width="2" stroke-linecap="round" stroke-linejoin="round" stroke-miterlimit="10" points="
	290.9,212 262.9,191 75.9,191 49.9,212 "/>
<line class="st1" fill="#0071BC" stroke="#29ABE2" stroke-width="1.5" stroke-linecap="round" stroke-linejoin="round" stroke-miterlimit="10" x1="266.6" y1="170" x2="262.9" y2="191"/>
<line class="st1" fill="#0071BC" stroke="#29ABE2" stroke-width="1.5" stroke-linecap="round" stroke-linejoin="round" stroke-miterlimit="10" x1="70.6" y1="170" x2="75.9" y2="191"/>
<line class="st1" fill="#0071BC" stroke="#29ABE2" stroke-width="1.5" stroke-linecap="round" stroke-linejoin="round" stroke-miterlimit="10" x1="73.9" y1="193" x2="74.9" y2="212"/>
<line class="st1" fill="#0071BC" stroke="#29ABE2" stroke-width="1.5" stroke-linecap="round" stroke-linejoin="round" stroke-miterlimit="10" x1="263.9" y1="211" x2="264.9" y2="192"/>
<path class="st1" fill="#0071BC" stroke="#29ABE2" stroke-width="2" stroke-linecap="round" stroke-linejoin="round" stroke-miterlimit="10" d="
	M79.2,368H65.5c-1,0-1.8-0.7-2-1.6l-1.3-7c-0.2-1.2,0.7-2.4,2-2.4h16.2c1.2,0,2.2,1.1,2,2.4l-1.3,7C81,367.3,80.2,368,79.2,368z"/>
<path class="st1" fill="#0071BC" stroke="#29ABE2" stroke-width="2" stroke-linecap="round" stroke-linejoin="round" stroke-miterlimit="10" d="
	M271.6,368h-13.7c-1,0-1.8-0.7-2-1.6l-1.3-7c-0.2-1.2,0.7-2.4,2-2.4h16.2c1.2,0,2.2,1.1,2,2.4l-1.3,7
	C273.4,367.3,272.6,368,271.6,368z"/>
<path class="st1" fill="#0071BC" stroke="#29ABE2" stroke-width="2" stroke-linecap="round" stroke-linejoin="round" stroke-miterlimit="10" d="
	M271.8,362H66.2c-6.3,0-11.7-4.1-13.1-10.2L26,232h286l-27.1,119.8C283.5,357.9,278.1,362,271.8,362z"/>
<path class="st1" fill="#0071BC" stroke="#29ABE2" stroke-width="2" stroke-linecap="round" stroke-linejoin="round" stroke-miterlimit="10" d="
	M261.2,347H76.8c-4.2,0-7.8-3.1-8.7-7.1l-16.7-73.6c-1.3-5.6,3-11.3,8.7-11.3h217.9c5.7,0,10,5.6,8.7,11.2l-16.7,73.6
	C269,343.8,265.3,347,261.2,347z"/>
<path class="st1" fill="#0071BC" stroke="#29ABE2" stroke-width="2" stroke-linecap="round" stroke-linejoin="round" stroke-miterlimit="10" d="
	M324.6,245H12.9c-1.7,0-3.2-1.3-3.8-3.3l-5.2-18.3c-0.9-3.2,1-6.5,3.8-6.5h322.2c2.8,0,4.7,3.3,3.8,6.5l-5.2,18.3
	C327.8,243.7,326.3,245,324.6,245z"/>
<path class="st1" fill="#0071BC" stroke="#29ABE2" stroke-width="1.5" stroke-linecap="round" stroke-linejoin="round" stroke-miterlimit="10" d="
	M224.6,233.5l-0.2,0.1c-6.1,1.7-12.3-1.8-14-7.9l-32-124.7c-0.4-1.6,0.5-3.3,2.1-3.7l16.4-4.6c1.6-0.4,3.3,0.5,3.7,2.1l32,124.7
	C234.1,225.5,230.6,231.8,224.6,233.5z"/>
<polygon class="st1" fill="#0071BC" stroke="#29ABE2" stroke-width="1.5" stroke-linecap="round" stroke-linejoin="round" stroke-miterlimit="10" points="
	171.9,92.5 178.2,100.5 200.2,93.5 190.9,86.5 "/>
<path class="st1" fill="#0071BC" stroke="#29ABE2" stroke-width="1.5" stroke-linecap="round" stroke-linejoin="round" stroke-miterlimit="10" d="
	M120.2,233.5l0.2,0.1c6.1,1.7,12.3-1.8,14-7.9l32-124.7c0.4-1.6-0.5-3.3-2.1-3.7L148,92.7c-1.6-0.4-3.3,0.5-3.7,2.1l-32,124.7
	C110.6,225.5,114.1,231.8,120.2,233.5z"/>
<polygon class="st1" fill="#0071BC" stroke="#29ABE2" stroke-width="1.5" stroke-linecap="round" stroke-linejoin="round" stroke-miterlimit="10" points="
	172.9,92.5 166.5,100.5 144.5,93.5 153.9,86.5 "/>
<circle class="st1" fill="#0071BC" stroke="#29ABE2" stroke-width="1.5" stroke-linecap="round" stroke-linejoin="round" stroke-miterlimit="10" cx="220.9" cy="224" r="4"/>
<circle class="st1" fill="#0071BC" stroke="#29ABE2" stroke-width="1.5" stroke-linecap="round" stroke-linejoin="round" stroke-miterlimit="10" cx="123.9" cy="224" r="4"/>
<path class="st1" fill="none" stroke="#29ABE2" stroke-width="1.5" stroke-linecap="round" stroke-linejoin="round" stroke-miterlimit="10" d="
	M281.9,72.3c0-22.6-2.3-64.5,41-64.5c42.6,0,41,41.9,41,64.5"/>
<circle class="st1" fill="#0071BC" stroke="#29ABE2" stroke-width="1.5" stroke-linecap="round" stroke-linejoin="round" stroke-miterlimit="10" cx="281.9" cy="72" r="4"/>
<circle class="st1" fill="#0071BC" stroke="#29ABE2" stroke-width="1.5" stroke-linecap="round" stroke-linejoin="round" stroke-miterlimit="10" cx="363.9" cy="72" r="4"/>
<line class="st1" fill="#0071BC" stroke="#29ABE2" stroke-width="2" stroke-linecap="round" stroke-linejoin="round" stroke-miterlimit="10" x1="373" y1="270" x2="423" y2="270"/>
<line class="st1" fill="#0071BC" stroke="#29ABE2" stroke-width="2" stroke-linecap="round" stroke-linejoin="round" stroke-miterlimit="10" x1="248" y1="48" x2="248" y2="60"/>
<line class="st1" fill="#0071BC" stroke="#29ABE2" stroke-width="2" stroke-linecap="round" stroke-linejoin="round" stroke-miterlimit="10" x1="396" y1="48" x2="396" y2="60"/>
</svg>
