<?xml version="1.0" encoding="utf-8"?>
<!-- Generator: Adobe Illustrator 17.1.0, SVG Export Plug-In . SVG Version: 6.00 Build 0)  -->
<!DOCTYPE svg PUBLIC "-//W3C//DTD SVG 1.1//EN" "http://www.w3.org/Graphics/SVG/1.1/DTD/svg11.dtd">
<svg version="1.1" id="bludo" xmlns="http://www.w3.org/2000/svg" xmlns:xlink="http://www.w3.org/1999/xlink" x="0px" y="0px"
	 viewBox="0 0 278 320" enable-background="new 0 0 278 320" xml:space="preserve">

	 <defs>
	    <style>
            .st0{}
            .st0{
                stroke-dasharray: 2000;
                stroke-dashoffset:2000;
                animation: dash 5s linear  forwards;
            }

            @keyframes dash{
                from{
                    stroke-dashoffset: 2000;
                }
                to{
                    stroke-dashoffset:0;
                }
            }

	    </style>
	 </defs>


<path class="st0" fill="#0071BC" stroke="#29ABE2" stroke-width="2" stroke-linecap="round" stroke-linejoin="round" stroke-miterlimit="10" d="
	M52.5,78c-5.6-4.9-5.7-12.5-5.7-12.5l-0.1-12.3v-47h0.1c0-1-3.8-3.3-11.1-3.3c-0.2,0-0.3,0-0.5,0c0,0-0.3-0.1-0.5-0.1
	c-7.3,0-11.1,2.3-11.1,3.3h0.1v47l-0.1,12.3c0,0-0.1,7.6-5.7,12.5c-5.1,4.4-13.1,8.9-13.1,25.8V256c0,2.1,1.1,4.1,2.9,5.1
	c3.7,2.1,11.6,4.9,27.1,4.9c0.2,0,0.4,0,0.4,0c0.2,0,0.3,0,0.5,0c15.5,0,23.4-2.8,27.1-4.9c1.8-1,2.9-3,2.9-5.1V103.7
	C65.6,86.9,57.5,82.4,52.5,78z"/>
<ellipse class="st0" fill="#0071BC" stroke="#29ABE2" stroke-width="1.5" stroke-linecap="round" stroke-linejoin="round" stroke-miterlimit="10" cx="141.9" cy="273.1" rx="110.6" ry="31.5"/>
<ellipse class="st0" fill="#0071BC" stroke="#29ABE2" stroke-width="1.5" stroke-linecap="round" stroke-linejoin="round" stroke-miterlimit="10" cx="141.9" cy="260.8" rx="133.5" ry="36.7"/>
<path class="st0" fill="#0071BC" stroke="#29ABE2" stroke-width="1.5" stroke-linecap="round" stroke-linejoin="round" stroke-miterlimit="10" d="
	M141.8,240.5c55.5,0.1,110.7-5.2,110.7,15.4c0,0-5.7,26.2-110.7,26.2c-105.1,0-110.7-26.2-110.7-26.2
	C31.1,237.8,86.3,240.7,141.8,240.5z"/>
<path class="st0" fill="#0071BC" stroke="#29ABE2" stroke-width="1.5" stroke-linecap="round" stroke-linejoin="round" stroke-miterlimit="10" d="
	M141.8,161.2c53.6,0.1,106.7,57.9,106.7,91.1c0,0-5.5,25.3-106.7,25.3C40.4,277.6,35,252.3,35,252.3
	C35,219.1,88.3,161.3,141.8,161.2z"/>
<ellipse class="st0" fill="#0071BC" stroke="#29ABE2" stroke-width="1.5" stroke-linecap="round" stroke-linejoin="round" stroke-miterlimit="10" cx="141.9" cy="163.5" rx="16.4" ry="4.7"/>
<path class="st0" fill="#0071BC" stroke="#29ABE2" stroke-width="1.5" stroke-linecap="round" stroke-linejoin="round" stroke-miterlimit="10" d="
	M126.1,144c0,0.9,6.8,6.1,9.6,11s-5.5,9.6,6.2,9.6c12,0,3.3-4.7,6.2-9.6s9.6-10.1,9.6-11c0-0.9-1.8-1.8-4.6-2.4s-6.8-1-11.2-1
	s-8.3,0.4-11.2,1S126.1,143.1,126.1,144z"/>
<ellipse class="st0" fill="#0071BC" stroke="#29ABE2" stroke-width="1.5" stroke-linecap="round" stroke-linejoin="round" stroke-miterlimit="10" cx="141.9" cy="143.1" rx="15.8" ry="3.3"/>
<ellipse class="st0" fill="#0071BC" stroke="#29ABE2" stroke-width="1.5" stroke-linecap="round" stroke-linejoin="round" stroke-miterlimit="10" cx="141.9" cy="140" rx="12.7" ry="2.7"/>
<g class="st0">
	<path class="st0" fill="#0071BC" d="M51.6,317.8c-18.2,0-24.4-3.1-26.5-5c-0.8-0.7-1.2-1.7-1.2-2.8c0-2.2,4.1-3.1,10.2-4.4
		c6.3-1.3,14.1-2.9,14.8-6.2c1.2-7.5,0.4-34.1,0.1-44.2c-0.1-2.2-0.1-3.7-0.1-4.1c0-2.2-3.3-4.5-7.1-7.2
		c-18.1-14.5-21.3-23.2-21.3-36.1c0-12.7,7.1-46.8,7.5-49.1c0-1,0.5-2.7,20-2.7c2.2,0,3.6,0,3.6,0c0,0,1.4,0,3.6,0
		c19.4,0,19.9,1.7,19.9,2.7c0.5,2.3,7.5,36.3,7.5,49.1c0,12.6-3.3,21.6-21.3,36c-3.9,2.7-7.2,5-7.2,7.2c0,0.4,0,1.8-0.1,3.8
		c-0.3,10.1-1,36.9,0.2,44.5c0.6,3.2,8.5,4.8,14.9,6.2c6.8,1.4,10.3,2.2,10.3,4.4c0,1.1-0.4,2.1-1.2,2.8
		C76,314.6,69.8,317.8,51.6,317.8z"/>
		<path class="st0" fill="#29ABE2" d="M55.2,156.7c6.4,0,19.1,0.2,19.1,2.1c0,0,7.5,36,7.5,49s-3.6,21.5-21,35.5c-4.1,2.9-7.5,5.2-7.5,7.8
        		c0,2.6-1.4,39.3,0.2,48.5c1.3,6.6,25.1,6.7,25.1,10.4v0c0,0.9-0.3,1.7-1,2.3c-2,1.8-8.1,4.8-26,4.8s-24-3-26-4.8
        		c-0.6-0.6-1-1.4-1-2.3v0c0-3.7,23.6-3.8,25-10.4c1.5-9.1,0-45.9,0-48.5c0-2.6-3.3-4.9-7.5-7.8c-17.4-13.9-21-22.5-21-35.5
        		s7.5-49,7.5-49c0-1.8,12.8-2.1,19.2-2.1c2.2,0,3.6,0,3.6,0S53,156.7,55.2,156.7 M55.2,155.2c-2,0-3.4,0-3.6,0c-0.2,0-1.6,0-3.6,0
        		c-3.3,0-8.1,0.1-12.1,0.3c-6.2,0.4-8.4,1.2-8.6,3c-0.6,2.7-7.6,36.4-7.6,49.2c0,12.8,3.3,22,21.6,36.6c0,0,0.1,0,0.1,0.1
        		c3.4,2.3,6.8,4.8,6.8,6.6c0,0.5,0,1.9,0.1,4.1c0.3,10,1.1,36.6-0.1,44c-0.6,2.7-8.8,4.4-14.2,5.6c-6.5,1.4-10.8,2.3-10.8,5.1
        		c0,1.3,0.5,2.5,1.5,3.4c2.6,2.4,9.5,5.2,27,5.2s24.4-2.8,27-5.2c0.9-0.8,1.5-2.1,1.5-3.4c0-2.8-4.3-3.7-10.9-5.1
        		c-5.5-1.1-13.7-2.8-14.3-5.6c-1.2-7.5-0.5-34.3-0.2-44.3c0.1-2.1,0.1-3.4,0.1-3.9c0-1.8,3.5-4.2,6.8-6.6c0,0,0.1,0,0.1-0.1
        		c18.2-14.6,21.6-23.8,21.6-36.6c0-12.7-7-46.5-7.5-49.2c-0.1-1.8-2.4-2.6-8.6-3C63.2,155.3,58.5,155.2,55.2,155.2L55.2,155.2z"/>

</g>
<path class="st0" fill="#0071BC" stroke="#29ABE2" stroke-width="1.5" stroke-linecap="round" stroke-linejoin="round" stroke-miterlimit="10" d="
	M77.6,309.6c-2,1.8-8.1,4.8-26,4.8s-24-3-26-4.8"/>
<ellipse class="st0" fill="#0071BC" stroke="#29ABE2" stroke-width="1.5" stroke-linecap="round" stroke-linejoin="round" stroke-miterlimit="10" cx="51.5" cy="158.6" rx="22.8" ry="4.8"/>
<ellipse class="st0" fill="#0071BC" stroke="#29ABE2" stroke-width="2" stroke-linecap="round" stroke-linejoin="round" stroke-miterlimit="10" cx="35.1" cy="6.3" rx="10.5" ry="3"/>
<path class="st0" fill="#0071BC" stroke="#29ABE2" stroke-width="2" stroke-linecap="round" stroke-linejoin="round" stroke-miterlimit="10" d="
	M45.6,23.3c0,1.1-4.7,2-10.5,2s-10.5-0.9-10.5-2"/>
<path class="st0" fill="#0071BC" stroke="#29ABE2" stroke-width="2" stroke-linecap="round" stroke-linejoin="round" stroke-miterlimit="10" d="
	M45.6,61.3c0,1.7-4.7,3-10.5,3s-10.5-1.3-10.5-3"/>
<path class="st0" fill="#0071BC" stroke="#29ABE2" stroke-width="2" stroke-linecap="round" stroke-linejoin="round" stroke-miterlimit="10" d="
	M22,5v13h-0.3c0.7,2,6.2,3.2,12.9,3.2S46.8,20,47.5,18H48V5H22z"/>
<ellipse class="st0" fill="#0071BC" stroke="#29ABE2" stroke-width="2" stroke-linecap="round" stroke-linejoin="round" stroke-miterlimit="10" cx="35.1" cy="5.3" rx="12.5" ry="2.3"/>
</svg>
